<?xml version="1.0" encoding="UTF-8" standalone="no"?>
<svg
   xmlns:dc="http://purl.org/dc/elements/1.1/"
   xmlns:cc="http://creativecommons.org/ns#"
   xmlns:rdf="http://www.w3.org/1999/02/22-rdf-syntax-ns#"
   xmlns:svg="http://www.w3.org/2000/svg"
   xmlns="http://www.w3.org/2000/svg"
   xmlns:sodipodi="http://sodipodi.sourceforge.net/DTD/sodipodi-0.dtd"
   xmlns:inkscape="http://www.inkscape.org/namespaces/inkscape"
   version="1.1"
   x="0px"
   y="0px"
   viewBox="0 0 58 60"
   style="enable-background:new"
   xml:space="preserve"
   id="svg62"
   sodipodi:docname="calender.svg"
   inkscape:version="0.92.3 (2405546, 2018-03-11)"
   width="58"
   height="60"><metadata
     id="metadata68"><rdf:RDF><cc:Work
         rdf:about=""><dc:format>image/svg+xml</dc:format><dc:type
           rdf:resource="http://purl.org/dc/dcmitype/StillImage" /><dc:title></dc:title></cc:Work></rdf:RDF></metadata><defs
     id="defs66"><filter
       inkscape:collect="always"
       style="color-interpolation-filters:sRGB"
       id="filter282"><feBlend
         inkscape:collect="always"
         mode="darken"
         in2="BackgroundImage"
         id="feBlend284" /></filter><style
       id="style2"
       type="text/css">
   
    .fil0 {fill:black}
   
  </style></defs><sodipodi:namedview
     pagecolor="#ffffff"
     bordercolor="#666666"
     borderopacity="1"
     objecttolerance="10"
     gridtolerance="10"
     guidetolerance="10"
     inkscape:pageopacity="0"
     inkscape:pageshadow="2"
     inkscape:window-width="1853"
     inkscape:window-height="1024"
     id="namedview64"
     showgrid="false"
     inkscape:zoom="5.3977371"
     inkscape:cx="9.7540783"
     inkscape:cy="21.749708"
     inkscape:window-x="67"
     inkscape:window-y="27"
     inkscape:window-maximized="1"
     inkscape:current-layer="layer1" /><g
     inkscape:groupmode="layer"
     id="layer1"
     inkscape:label="Layer 1"
     style="display:inline"
     transform="translate(0,-12.5)"><g
       id="g480"
       transform="translate(0,14)"><path
         inkscape:connector-curvature="0"
         id="path4"
         d="m 26,2.5 c 1.654,0 3,1.346 3,3 0,1.654 -1.346,3 -3,3 -0.553,0 -1,0.447 -1,1 0,0.553 0.447,1 1,1 2.757,0 5,-2.243 5,-5 0,-2.757 -2.243,-5 -5,-5 -0.553,0 -1,0.447 -1,1 0,0.553 0.447,1 1,1 z"
         style="display:inline;enable-background:new" /><path
         inkscape:connector-curvature="0"
         id="path6"
         d="m 32,2.5 c 1.654,0 3,1.346 3,3 0,1.654 -1.346,3 -3,3 -0.553,0 -1,0.447 -1,1 0,0.553 0.447,1 1,1 2.757,0 5,-2.243 5,-5 0,-2.757 -2.243,-5 -5,-5 -0.553,0 -1,0.447 -1,1 0,0.553 0.447,1 1,1 z"
         style="display:inline;enable-background:new" /><path
         inkscape:connector-curvature="0"
         d="m 44,2.5 c 1.654,0 3,1.346 3,3 0,1.654 -1.346,3 -3,3 -0.553,0 -1,0.447 -1,1 0,0.553 0.447,1 1,1 2.757,0 5,-2.243 5,-5 0,-2.757 -2.243,-5 -5,-5 -0.553,0 -1,0.447 -1,1 0,0.553 0.447,1 1,1 z"
         id="path70"
         style="display:inline;enable-background:new" /><path
         id="path72"
         d="m 38,2.5 c 1.654,0 3,1.346 3,3 0,1.654 -1.346,3 -3,3 -0.553,0 -1,0.447 -1,1 0,0.553 0.447,1 1,1 2.757,0 5,-2.243 5,-5 0,-2.757 -2.243,-5 -5,-5 -0.553,0 -1,0.447 -1,1 0,0.553 0.447,1 1,1 z"
         inkscape:connector-curvature="0"
         style="display:inline;enable-background:new" /><path
         inkscape:connector-curvature="0"
         d="m 20,2.5 c 1.654,0 3,1.346 3,3 0,1.654 -1.346,3 -3,3 -0.553,0 -1,0.447 -1,1 0,0.553 0.447,1 1,1 2.757,0 5,-2.243 5,-5 0,-2.757 -2.243,-5 -5,-5 -0.553,0 -1,0.447 -1,1 0,0.553 0.447,1 1,1 z"
         id="path74"
         style="display:inline;enable-background:new" /><path
         id="path76"
         d="m 14,2.5 c 1.654,0 3,1.346 3,3 0,1.654 -1.346,3 -3,3 -0.553,0 -1,0.447 -1,1 0,0.553 0.447,1 1,1 2.757,0 5,-2.243 5,-5 0,-2.757 -2.243,-5 -5,-5 -0.553,0 -1,0.447 -1,1 0,0.553 0.447,1 1,1 z"
         inkscape:connector-curvature="0"
         style="display:inline;enable-background:new" /><path
         id="path117"
         d="M 54.899,4.5 C 54.434,2.221 52.415,0.5 50,0.5 c -0.553,0 -1,0.447 -1,1 0,0.553 0.447,1 1,1 1.654,0 3,1.346 3,3 0,1.654 -1.346,3 -3,3 -0.553,0 -1,0.447 -1,1 0,0.553 0.447,1 1,1 2.414,0 4.434,-1.721 4.899,-4 H 56 v 9 H 2 v -9 h 2 3 c 0.553,0 1,-0.447 1,-1 0,-0.553 -0.447,-1 -1,-1 H 5.184 C 5.598,3.338 6.698,2.5 8,2.5 c 1.654,0 3,1.346 3,3 0,1.654 -1.346,3 -3,3 -0.553,0 -1,0.447 -1,1 0,0.553 0.447,1 1,1 2.757,0 5,-2.243 5,-5 0,-2.757 -2.243,-5 -5,-5 -2.414,0 -4.434,1.721 -4.899,4 H 0 v 13 40 h 58 v -40 -13 z M 56,55.5 H 2 v -38 h 54 z"
         inkscape:connector-curvature="0"
         sodipodi:nodetypes="csssssssccccccssscsssssssccccccccccccc"
         style="display:inline;filter:url(#filter282);enable-background:new" /><g
         transform="matrix(0.10308601,0,0,0.10308601,2948.452,21.014951)"
         id="g296"
         style="clip-rule:evenodd;display:inline;fill-rule:evenodd;filter:url(#filter282);image-rendering:optimizeQuality;shape-rendering:geometricPrecision;text-rendering:geometricPrecision;enable-background:new"><g
           id="g8"
           transform="translate(-28536.086,-0.43961864)"><path
             class="fil0"
             d="m 0,43 c 2,-4 6,-9 13,-7 6,2 10,8 13,16 C 50,25 70,6 94,0 97,0 98,0 96,2 70,20 45,47 25,82 24,83 23,83 22,82 18,72 15,62 10,52 8,47 5,43 0,43 Z"
             id="path6-3"
             inkscape:connector-curvature="0"
             style="fill:#000000" /></g></g><g
         style="clip-rule:evenodd;display:inline;fill-rule:evenodd;filter:url(#filter282);image-rendering:optimizeQuality;shape-rendering:geometricPrecision;text-rendering:geometricPrecision;enable-background:new"
         id="g335"
         transform="matrix(0.10308601,0,0,0.10308601,2948.452,31.057476)"><g
           transform="translate(-28536.086,-0.43961864)"
           id="g333"><path
             style="fill:#000000"
             inkscape:connector-curvature="0"
             id="path331"
             d="m 0,43 c 2,-4 6,-9 13,-7 6,2 10,8 13,16 C 50,25 70,6 94,0 97,0 98,0 96,2 70,20 45,47 25,82 24,83 23,83 22,82 18,72 15,62 10,52 8,47 5,43 0,43 Z"
             class="fil0" /></g></g><g
         transform="matrix(0.10308601,0,0,0.10308601,2948.452,41.057476)"
         id="g341"
         style="clip-rule:evenodd;display:inline;fill-rule:evenodd;filter:url(#filter282);image-rendering:optimizeQuality;shape-rendering:geometricPrecision;text-rendering:geometricPrecision;enable-background:new"><g
           id="g339"
           transform="translate(-28536.086,-0.43961864)"><path
             class="fil0"
             d="m 0,43 c 2,-4 6,-9 13,-7 6,2 10,8 13,16 C 50,25 70,6 94,0 97,0 98,0 96,2 70,20 45,47 25,82 24,83 23,83 22,82 18,72 15,62 10,52 8,47 5,43 0,43 Z"
             id="path337"
             inkscape:connector-curvature="0"
             style="fill:#000000" /></g></g><g
         id="g360"
         style="display:inline;filter:url(#filter282);enable-background:new"><path
           id="path351"
           sodipodi:type="arc"
           sodipodi:cx="26"
           sodipodi:cy="-21"
           sodipodi:rx="1"
           sodipodi:ry="0.99999994"
           sodipodi:start="0"
           sodipodi:end="3.1415927"
           d="m 27,-21 a 1,0.99999994 0 0 1 -0.5,0.866025 1,0.99999994 0 0 1 -1,0 A 1,0.99999994 0 0 1 25,-21 l 1,0 z"
           transform="rotate(90)"
           style="stroke-width:1.02814031" /><rect
           id="rect353"
           width="25.721867"
           height="2"
           x="20.946529"
           y="25"
           style="stroke-width:3.27127481" /><path
           style="stroke-width:1.02814031"
           transform="rotate(-90)"
           d="m -25,46.602085 a 1,0.99999994 0 0 1 -0.5,0.866025 1,0.99999994 0 0 1 -1,0 1,0.99999994 0 0 1 -0.5,-0.866025 l 1,0 z"
           sodipodi:end="3.1415927"
           sodipodi:start="0"
           sodipodi:ry="0.99999994"
           sodipodi:rx="1"
           sodipodi:cy="46.602085"
           sodipodi:cx="-26"
           sodipodi:type="arc"
           id="path355" /></g><g
         transform="translate(0,10)"
         id="g368"
         style="display:inline;filter:url(#filter282);enable-background:new"><path
           style="stroke-width:1.02814031"
           transform="rotate(90)"
           d="m 27,-21 a 1,0.99999994 0 0 1 -0.5,0.866025 1,0.99999994 0 0 1 -1,0 A 1,0.99999994 0 0 1 25,-21 l 1,0 z"
           sodipodi:end="3.1415927"
           sodipodi:start="0"
           sodipodi:ry="0.99999994"
           sodipodi:rx="1"
           sodipodi:cy="-21"
           sodipodi:cx="26"
           sodipodi:type="arc"
           id="path362" /><rect
           style="stroke-width:3.27127481"
           y="25"
           x="20.946529"
           height="2"
           width="25.721867"
           id="rect364" /><path
           id="path366"
           sodipodi:type="arc"
           sodipodi:cx="-26"
           sodipodi:cy="46.602085"
           sodipodi:rx="1"
           sodipodi:ry="0.99999994"
           sodipodi:start="0"
           sodipodi:end="3.1415927"
           d="m -25,46.602085 a 1,0.99999994 0 0 1 -0.5,0.866025 1,0.99999994 0 0 1 -1,0 1,0.99999994 0 0 1 -0.5,-0.866025 l 1,0 z"
           transform="rotate(-90)"
           style="stroke-width:1.02814031" /></g><g
         id="g376"
         transform="translate(0,20)"
         style="display:inline;filter:url(#filter282);enable-background:new"><path
           id="path370"
           sodipodi:type="arc"
           sodipodi:cx="26"
           sodipodi:cy="-21"
           sodipodi:rx="1"
           sodipodi:ry="0.99999994"
           sodipodi:start="0"
           sodipodi:end="3.1415927"
           d="m 27,-21 a 1,0.99999994 0 0 1 -0.5,0.866025 1,0.99999994 0 0 1 -1,0 A 1,0.99999994 0 0 1 25,-21 l 1,0 z"
           transform="rotate(90)"
           style="stroke-width:1.02814031" /><rect
           id="rect372"
           width="25.721867"
           height="2"
           x="20.946529"
           y="25"
           style="stroke-width:3.27127481" /><path
           style="stroke-width:1.02814031"
           transform="rotate(-90)"
           d="m -25,46.602085 a 1,0.99999994 0 0 1 -0.5,0.866025 1,0.99999994 0 0 1 -1,0 1,0.99999994 0 0 1 -0.5,-0.866025 l 1,0 z"
           sodipodi:end="3.1415927"
           sodipodi:start="0"
           sodipodi:ry="0.99999994"
           sodipodi:rx="1"
           sodipodi:cy="46.602085"
           sodipodi:cx="-26"
           sodipodi:type="arc"
           id="path374" /></g></g></g></svg>