<svg version="1.1" xmlns="http://www.w3.org/2000/svg" xmlns:xlink="http://www.w3.org/1999/xlink" x="0px" y="0px"
	 viewBox="0 0 1040 1040" style="enable-background:new 0 0 1040 1040;" xml:space="preserve">
<style type="text/css">
	.iconCircle{fill:#4F54FF;stroke:#231F20;stroke-miterlimit:10;}
	.iconInner{fill:#FFFFFF;}
	.st2{enable-background:new    ;}
</style>
<circle class="iconCircle" cx="520" cy="520" r="520"/>
<g transform="translate(-36)">
	<path class="iconInner" d="M306.6,746.4c5.4,0,10.6,0.8,15.8,2.2c5.1,1.6,9.7,3.8,13.5,6.8c3.9-2.6,8.4-4.7,13.2-6.5
		c5-1.7,10.9-2.5,17.8-2.5c5,0,9.8,0.7,14.7,2c4.7,1.3,9,3.4,12.8,6.2c3.8,2.9,6.7,6.5,8.9,11.1c2.2,4.7,3.4,10.3,3.4,17v61.9
		c-1.3,0.4-3.4,0.8-6.2,1.2c-2.9,0.4-5.8,0.7-8.8,0.7c-2.9,0-5.5-0.3-7.7-0.7c-2.4-0.4-4.2-1.2-5.8-2.4c-1.6-1.2-2.7-2.7-3.7-4.8
		c-0.9-2-1.3-4.7-1.3-8v-47c0-3.9-1.2-6.8-3.4-8.5c-2.2-1.8-5.2-2.6-9-2.6c-1.8,0-3.8,0.4-5.9,1.3c-2.1,0.9-3.7,1.7-4.7,2.6
		c0.1,0.5,0.3,1,0.3,1.4c0,0.5,0,0.9,0,1.3v65.5c-1.4,0.4-3.5,0.8-6.4,1.2c-2.9,0.4-5.6,0.7-8.5,0.7s-5.5-0.3-7.7-0.7
		c-2.4-0.4-4.2-1.2-5.8-2.4s-2.7-2.7-3.7-4.8c-0.9-2-1.3-4.7-1.3-8v-47c0-3.9-1.2-6.8-3.7-8.5c-2.5-1.8-5.4-2.6-8.8-2.6
		c-2.4,0-4.5,0.4-6,1c-1.7,0.8-3.1,1.4-4.3,2.1v69c-1.3,0.4-3.4,0.8-6.2,1.2c-2.9,0.4-5.8,0.7-8.8,0.7c-2.9,0-5.5-0.3-7.7-0.7
		c-2.4-0.4-4.2-1.2-5.8-2.4c-1.6-1.2-2.7-2.7-3.7-4.8c-0.9-2-1.3-4.7-1.3-8v-59.3c0-3.5,0.8-6.3,2.2-8.4c1.4-2.1,3.5-4.1,6.2-5.9
		c4.5-3.1,10-5.8,16.6-7.7C292.6,747.3,299.4,746.4,306.6,746.4L306.6,746.4z"/>
	<path class="iconInner" d="M439,820.4c-1.4-3.3-3-6.9-4.6-11c-1.7-4.1-3.3-8.6-5.1-13.9c-1.8-5.2-3.7-11.3-5.5-17.9
		c-2-6.7-3.9-14.5-6-23.3c1.8-1.8,4.3-3.4,7.3-4.8c3-1.3,6.4-2.1,10.1-2.1c4.6,0,8.4,0.9,11.4,2.9c3,2,5.2,5.5,6.7,10.7l15.6,54.1
		h0.8c1.6-4.5,3.1-9.3,4.6-14.5c1.4-5.2,3-10.6,4.5-16.2c1.4-5.5,2.7-11.1,4.1-16.8c1.2-5.5,2.4-11,3.3-16.4
		c4.7-2.5,9.8-3.8,15.6-3.8c4.6,0,8.4,1,11.4,3c3,2,4.5,5.4,4.5,10.2c0,3.5-0.5,7.6-1.3,12.3c-0.9,4.7-2.1,9.6-3.7,14.8
		c-1.6,5.2-3.3,10.6-5.4,16.2c-2.1,5.6-4.2,11-6.4,16.4s-4.5,10.5-6.9,15.2c-2.4,4.8-4.7,9-6.9,12.8c-3.7,6.4-7.1,11.7-10.2,15.7
		s-6.2,7.2-9,9.6c-2.9,2.2-5.8,3.8-8.6,4.7c-2.9,0.8-5.9,1.3-9,1.3c-5.5,0-10-1.7-13.4-5c-3.4-3.3-5.5-7.6-6-12.8
		c4.2-3.3,8.4-6.9,12.6-10.9c4.2-4.1,8-8.1,11.4-12.3c-2.2-0.7-4.6-2.2-7.2-4.6C444.8,831.6,442,827,439,820.4z"/>
	<path class="iconInner" d="M580,847.9c-2.2,0-4.8-0.1-7.7-0.3c-2.9-0.1-5.9-0.4-8.9-0.8c-3.1-0.4-6.2-0.9-9.2-1.4
		c-3.1-0.7-5.9-1.4-8.5-2.5c-7.2-2.7-10.9-7.6-10.9-14.4v-91.8c0-2.7,0.8-4.8,2.2-6.4c1.4-1.4,3.5-2.7,6.2-3.7
		c5.6-1.8,11.5-3,17.8-3.7s11.9-0.9,16.9-0.9c10.2,0,19.5,1.3,27.8,3.8s15.5,6.3,21.3,11.5c5.9,5.2,10.6,11.7,13.9,19.5
		c3.3,7.9,5,17.2,5,27.9c0,10.5-1.6,19.6-4.7,27.4c-3.1,7.9-7.6,14.4-13.5,19.6c-5.9,5.2-12.8,9.3-21,11.9
		C598.8,846.5,589.8,847.9,580,847.9L580,847.9z M569,819.2c1.4,0.3,3.1,0.5,5.2,0.7c2.1,0.1,4.1,0.3,5.9,0.3c4.5,0,8.5-0.7,12.3-2
		c3.7-1.3,6.9-3.3,9.6-6c2.6-2.7,4.7-6.3,6.3-10.7c1.4-4.3,2.2-9.7,2.2-15.8c0-11.8-2.7-20.7-8.2-26.6c-5.5-5.9-12.8-8.9-22-8.9
		c-1.8,0-3.7,0.1-5.6,0.1c-2,0.1-3.8,0.4-5.8,0.5v68.5H569z"/>
	<path class="iconInner" d="M702.4,746.4c7.1,0,13.5,0.8,19.4,2.1c5.8,1.4,10.9,3.7,14.9,6.5c4.2,3,7.3,6.7,9.6,11.3
		c2.2,4.5,3.3,9.8,3.3,16v44c0,3.4-0.9,6.2-2.9,8.4c-2,2.1-4.2,4.1-6.8,5.6c-8.5,5.1-20.6,7.7-36,7.7c-6.9,0-13.2-0.7-18.7-2
		c-5.6-1.3-10.3-3.3-14.4-5.9c-4.1-2.6-7.1-5.9-9.2-10.1c-2.1-4.1-3.3-8.8-3.3-14.1c0-9,2.6-16,8-20.8c5.4-4.8,13.6-7.9,25-9
		l25.7-2.7V782c0-3.8-1.7-6.5-5-8.1c-3.3-1.6-8.1-2.5-14.4-2.5c-5,0-9.8,0.5-14.5,1.6c-4.7,1-9,2.4-12.8,3.9c-1.7-1.2-3.1-3-4.3-5.4
		s-1.7-5-1.7-7.6c0-3.4,0.8-6.2,2.5-8.1c1.6-2,4.2-3.8,7.6-5.2c3.8-1.4,8.2-2.5,13.5-3.1C692.9,746.8,697.8,746.4,702.4,746.4z
		 M704,823.5c2.2,0,4.7-0.3,7.3-0.7c2.6-0.4,4.7-1,6-1.8v-15.7l-14.1,1.2c-3.7,0.3-6.7,1-9,2.4c-2.4,1.3-3.5,3.3-3.5,5.9
		c0,2.6,1,4.7,3,6.4C695.6,822.7,699.1,823.5,704,823.5L704,823.5z"/>
	<path class="iconInner" d="M782.6,820.4c-1.4-3.3-3-6.9-4.6-11c-1.7-4.1-3.3-8.6-5.1-13.9c-1.8-5.2-3.7-11.3-5.5-17.9
		c-2-6.7-3.9-14.5-6-23.3c1.8-1.8,4.3-3.4,7.3-4.8c3-1.3,6.4-2.1,10.1-2.1c4.6,0,8.4,0.9,11.4,2.9c3,2,5.2,5.5,6.7,10.7l15.5,54.1
		h0.8c1.6-4.5,3.1-9.3,4.6-14.5c1.4-5.2,3-10.6,4.5-16.2c1.4-5.5,2.7-11.1,4.1-16.8c1.2-5.5,2.4-11,3.3-16.4
		c4.7-2.5,9.8-3.8,15.6-3.8c4.6,0,8.4,1,11.4,3c3,2,4.6,5.4,4.6,10.2c0,3.5-0.5,7.6-1.3,12.3c-0.9,4.7-2.1,9.6-3.7,14.8
		c-1.6,5.2-3.3,10.6-5.2,16.2c-2.1,5.6-4.2,11-6.4,16.4c-2.2,5.4-4.6,10.5-6.9,15.2c-2.4,4.8-4.7,9-6.9,12.8
		c-3.7,6.4-7.1,11.7-10.2,15.7c-3.1,4.1-6.2,7.2-9,9.6c-2.9,2.2-5.8,3.8-8.6,4.7c-2.9,0.8-5.9,1.3-9,1.3c-5.5,0-10-1.7-13.4-5
		c-3.4-3.3-5.5-7.6-6.2-12.8c4.2-3.3,8.4-6.9,12.6-10.9c4.2-4.1,8-8.1,11.4-12.3c-2.2-0.7-4.6-2.2-7.2-4.6
		C788.3,831.6,785.6,827,782.6,820.4L782.6,820.4z"/>
</g>
<g transform="matrix(1.7158322,0,0,1.7158322,316.05545,400.33184)" class="st2">
	<g transform="translate(0,-12.5)">
		<g transform="translate(0,14)">
			<path class="iconInner" d="M105.2-141.6c9.1,0,16.6,7.4,16.6,16.6s-7.4,16.6-16.6,16.6c-3.1,0-5.5,2.5-5.5,5.5
				c0,3.1,2.5,5.5,5.5,5.5c15.2,0,27.6-12.4,27.6-27.6s-12.4-27.6-27.6-27.6c-3.1,0-5.5,2.5-5.5,5.5
				C99.7-144,102.1-141.6,105.2-141.6z"/>
			<path class="iconInner" d="M138.4-141.6c9.1,0,16.6,7.4,16.6,16.6s-7.4,16.6-16.6,16.6c-3.1,0-5.5,2.5-5.5,5.5
				c0,3.1,2.5,5.5,5.5,5.5c15.2,0,27.6-12.4,27.6-27.6s-12.4-27.6-27.6-27.6c-3.1,0-5.5,2.5-5.5,5.5
				C132.8-144,135.3-141.6,138.4-141.6z"/>
			<path class="iconInner" d="M204.7-141.6c9.1,0,16.6,7.4,16.6,16.6s-7.4,16.6-16.6,16.6c-3.1,0-5.5,2.5-5.5,5.5
				c0,3.1,2.5,5.5,5.5,5.5c15.2,0,27.6-12.4,27.6-27.6s-12.4-27.6-27.6-27.6c-3.1,0-5.5,2.5-5.5,5.5
				C199.1-144,201.6-141.6,204.7-141.6z"/>
			<path class="iconInner" d="M171.5-141.6c9.1,0,16.6,7.4,16.6,16.6s-7.4,16.6-16.6,16.6c-3.1,0-5.5,2.5-5.5,5.5
				c0,3.1,2.5,5.5,5.5,5.5c15.2,0,27.6-12.4,27.6-27.6s-12.4-27.6-27.6-27.6c-3.1,0-5.5,2.5-5.5,5.5
				C166-144,168.5-141.6,171.5-141.6z"/>
			<path class="iconInner" d="M72-141.6c9.1,0,16.6,7.4,16.6,16.6s-7.4,16.6-16.6,16.6c-3.1,0-5.5,2.5-5.5,5.5
				c0,3.1,2.5,5.5,5.5,5.5c15.2,0,27.6-12.4,27.6-27.6S87.3-152.6,72-152.6c-3.1,0-5.5,2.5-5.5,5.5C66.5-144,69-141.6,72-141.6z"/>
			<path class="iconInner" d="M38.9-141.6c9.1,0,16.6,7.4,16.6,16.6s-7.4,16.6-16.6,16.6c-3.1,0-5.5,2.5-5.5,5.5
				c0,3.1,2.5,5.5,5.5,5.5c15.2,0,27.6-12.4,27.6-27.6s-12.4-27.6-27.6-27.6c-3.1,0-5.5,2.5-5.5,5.5C33.3-144,35.8-141.6,38.9-141.6
				z"/>
			<path class="iconInner" d="M264.9-130.5c-2.6-12.6-13.7-22.1-27.1-22.1c-3.1,0-5.5,2.5-5.5,5.5c0,3.1,2.5,5.5,5.5,5.5
				c9.1,0,16.6,7.4,16.6,16.6s-7.4,16.6-16.6,16.6c-3.1,0-5.5,2.5-5.5,5.5c0,3.1,2.5,5.5,5.5,5.5c13.3,0,24.5-9.5,27.1-22.1h6.1
				v49.7H-27.4v-49.7h11.1H0.2c3.1,0,5.5-2.5,5.5-5.5c0-3.1-2.5-5.5-5.5-5.5h-10c2.3-6.4,8.4-11.1,15.6-11.1
				c9.1,0,16.6,7.4,16.6,16.6s-7.4,16.6-16.6,16.6c-3.1,0-5.5,2.5-5.5,5.5c0,3.1,2.5,5.5,5.5,5.5c15.2,0,27.6-12.4,27.6-27.6
				S21-152.6,5.7-152.6c-13.3,0-24.5,9.5-27.1,22.1h-17.1v71.8v221.1H282V-58.7v-71.8H264.9z M271,151.3H-27.4v-210H271V151.3z"/>
			<g id="g296" transform="matrix(0.10308601,0,0,0.10308601,2948.452,21.014951)" class="st2">
				<g id="g8_9_" transform="translate(-28536.086,-0.43961864)">
					<path id="path6-3_9_" class="iconInner" d="M-75.7-349c11.1-22.1,33.2-49.7,71.8-38.7c33.2,11.1,55.3,44.2,71.8,88.4
						c132.6-149.2,243.2-254.2,375.8-287.4c16.6,0,22.1,0,11.1,11.1C311.2-476.1,173-326.9,62.5-133.4c-5.5,5.5-11.1,5.5-16.6,0
						C23.8-188.7,7.2-244-20.4-299.2C-31.5-326.9-48.1-349-75.7-349z"/>
				</g>
			</g>
			<g transform="matrix(0.10308601,0,0,0.10308601,2948.452,31.057476)" class="st2">
				<g id="g333_9_" transform="translate(-28536.086,-0.43961864)">
					<path id="path331_9_" class="iconInner" d="M-75.7,92c11.1-22.1,33.2-49.7,71.8-38.7C29.3,64.4,51.4,97.5,68,141.7
						C200.6-7.5,311.2-112.5,443.8-145.6c16.6,0,22.1,0,11.1,11.1C311.2-35.1,173,114.1,62.5,307.5c-5.5,5.5-11.1,5.5-16.6,0
						C23.8,252.3,7.2,197-20.4,141.7C-31.5,114.1-48.1,92-75.7,92z"/>
				</g>
			</g>
			<g transform="matrix(0.10308601,0,0,0.10308601,2948.452,41.057476)" class="st2">
				<g id="g339_9_" transform="translate(-28536.086,-0.43961864)">
					<path id="path337_9_" class="iconInner" d="M-75.7,531.1c11.1-22.1,33.2-49.7,71.8-38.7c33.2,11.1,55.3,44.2,71.8,88.4
						c132.6-149.2,243.2-254.2,375.8-287.4c16.6,0,22.1,0,11.1,11.1C311.2,404,173,553.2,62.5,746.7c-5.5,5.5-11.1,5.5-16.6,0
						C23.8,691.4,7.2,636.1-20.4,580.9C-31.5,553.2-48.1,531.1-75.7,531.1z"/>
				</g>
			</g>
			<g class="st2">
				<path class="iconInner" d="M77.6-6.2c-2,0-3.8-1.1-4.8-2.8s-1-3.8,0-5.5s2.8-2.8,4.8-2.8v5.5V-6.2z"/>
				<rect id="rect353_9_" x="77.3" y="-17.2" class="iconInner" width="142.2" height="11.1"/>
				<path id="path355_9_" class="iconInner" d="M219.1-17.2c2,0,3.8,1.1,4.8,2.8c1,1.7,1,3.8,0,5.5c-1,1.7-2.8,2.8-4.8,2.8v-5.5V-17.2z"/>
			</g>
			<g transform="translate(0,10)" class="st2">
				<path class="iconInner" d="M77.6,39.1c-2,0-3.8-1.1-4.8-2.8s-1-3.8,0-5.5c1-1.7,2.8-2.8,4.8-2.8v5.5V39.1z"/>
				<rect x="77.3" y="28" class="iconInner" width="142.2" height="11.1"/>
				<path class="iconInner" d="M219.1,28c2,0,3.8,1.1,4.8,2.8c1,1.7,1,3.8,0,5.5c-1,1.7-2.8,2.8-4.8,2.8v-5.5V28z"/>
			</g>
			<g transform="translate(0,20)" class="st2">
				<path class="iconInner" d="M77.6,84.4c-2,0-3.8-1.1-4.8-2.8c-1-1.7-1-3.8,0-5.5c1-1.7,2.8-2.8,4.8-2.8v5.5V84.4z"/>
				<rect x="77.3" y="73.3" class="iconInner" width="142.2" height="11.1"/>
				<path class="iconInner" d="M219.1,73.3c2,0,3.8,1.1,4.8,2.8c1,1.7,1,3.8,0,5.5c-1,1.7-2.8,2.8-4.8,2.8v-5.5V73.3z"/>
			</g>
		</g>
	</g>
</g>
</svg>
