<?xml version="1.0" encoding="utf-8"?>
<!-- Generator: Adobe Illustrator 19.0.0, SVG Export Plug-In . SVG Version: 6.00 Build 0)  -->
<svg version="1.1" id="Layer_2" xmlns="http://www.w3.org/2000/svg" xmlns:xlink="http://www.w3.org/1999/xlink" x="0px" y="0px"
	 viewBox="-174 376 550 150" style="enable-background:new -174 376 550 150;" xml:space="preserve">
<g>
	<path class="fill" d="M-91.6,414c4.1,0,8.1,0.6,12.1,1.7c3.9,1.2,7.4,2.9,10.3,5.2c3-2,6.4-3.6,10.1-5c3.8-1.3,8.3-1.9,13.6-1.9
		c3.8,0,7.5,0.5,11.2,1.5c3.6,1,6.9,2.6,9.8,4.7c2.9,2.2,5.1,5,6.8,8.5c1.7,3.6,2.6,7.9,2.6,13V489c-1,0.3-2.6,0.6-4.7,0.9
		c-2.2,0.3-4.4,0.5-6.7,0.5c-2.2,0-4.2-0.2-5.9-0.5c-1.8-0.3-3.2-0.9-4.4-1.8c-1.2-0.9-2.1-2.1-2.8-3.7c-0.7-1.5-1-3.6-1-6.1v-35.9
		c0-3-0.9-5.2-2.6-6.5c-1.7-1.4-4-2-6.9-2c-1.4,0-2.9,0.3-4.5,1c-1.6,0.7-2.8,1.3-3.6,2c0.1,0.4,0.2,0.8,0.2,1.1c0,0.4,0,0.7,0,1
		V489c-1.1,0.3-2.7,0.6-4.9,0.9c-2.2,0.3-4.3,0.5-6.5,0.5c-2.2,0-4.2-0.2-5.9-0.5c-1.8-0.3-3.2-0.9-4.4-1.8
		c-1.2-0.9-2.1-2.1-2.8-3.7c-0.7-1.5-1-3.6-1-6.1v-35.9c0-3-0.9-5.2-2.8-6.5c-1.9-1.4-4.1-2-6.7-2c-1.8,0-3.4,0.3-4.6,0.8
		c-1.3,0.6-2.4,1.1-3.3,1.6V489c-1,0.3-2.6,0.6-4.7,0.9c-2.2,0.3-4.4,0.5-6.7,0.5c-2.2,0-4.2-0.2-5.9-0.5c-1.8-0.3-3.2-0.9-4.4-1.8
		c-1.2-0.9-2.1-2.1-2.8-3.7c-0.7-1.5-1-3.6-1-6.1V433c0-2.7,0.6-4.8,1.7-6.4c1.1-1.6,2.7-3.1,4.7-4.5c3.4-2.4,7.6-4.4,12.7-5.9
		C-102.3,414.7-97.1,414-91.6,414z"/>
	<path class="fill" d="M9.5,470.5c-1.1-2.5-2.3-5.3-3.5-8.4c-1.3-3.1-2.5-6.6-3.9-10.6c-1.4-4-2.8-8.6-4.2-13.7c-1.5-5.1-3-11.1-4.6-17.8
		c1.4-1.4,3.3-2.6,5.6-3.7c2.3-1,4.9-1.6,7.7-1.6c3.5,0,6.4,0.7,8.7,2.2c2.3,1.5,4,4.2,5.1,8.2l11.9,41.3h0.6
		c1.2-3.4,2.4-7.1,3.5-11.1c1.1-4,2.3-8.1,3.4-12.4c1.1-4.2,2.1-8.5,3.1-12.8c0.9-4.2,1.8-8.4,2.5-12.5c3.6-1.9,7.5-2.9,11.9-2.9
		c3.5,0,6.4,0.8,8.7,2.3c2.3,1.5,3.4,4.1,3.4,7.8c0,2.7-0.4,5.8-1,9.4c-0.7,3.6-1.6,7.3-2.8,11.3c-1.2,4-2.5,8.1-4.1,12.4
		c-1.6,4.3-3.2,8.4-4.9,12.5c-1.7,4.1-3.4,8-5.3,11.6c-1.8,3.7-3.6,6.9-5.3,9.8c-2.8,4.9-5.4,8.9-7.8,12c-2.4,3.1-4.7,5.5-6.9,7.3
		c-2.2,1.7-4.4,2.9-6.6,3.6c-2.2,0.6-4.5,1-6.9,1c-4.2,0-7.6-1.3-10.2-3.8c-2.6-2.5-4.2-5.8-4.6-9.8c3.2-2.5,6.4-5.3,9.6-8.3
		c3.2-3.1,6.1-6.2,8.7-9.4c-1.7-0.5-3.5-1.7-5.5-3.5C14,479.1,11.8,475.6,9.5,470.5z"/>
	<path class="fill" d="M117.2,491.5c-1.7,0-3.7-0.1-5.9-0.2c-2.2-0.1-4.5-0.3-6.8-0.6c-2.4-0.3-4.7-0.7-7-1.1c-2.4-0.5-4.5-1.1-6.5-1.9
		c-5.5-2.1-8.3-5.8-8.3-11v-70.1c0-2.1,0.6-3.7,1.7-4.9c1.1-1.1,2.7-2.1,4.7-2.8c4.3-1.4,8.8-2.3,13.6-2.8c4.8-0.5,9.1-0.7,12.9-0.7
		c7.8,0,14.9,1,21.2,2.9c6.3,1.9,11.8,4.8,16.3,8.8c4.5,4,8.1,8.9,10.6,14.9c2.5,6,3.8,13.1,3.8,21.3c0,8-1.2,15-3.6,20.9
		c-2.4,6-5.8,11-10.3,15c-4.5,4-9.8,7.1-16,9.1C131.6,490.5,124.7,491.5,117.2,491.5z M108.8,469.6c1.1,0.2,2.4,0.4,4,0.5
		c1.6,0.1,3.1,0.2,4.5,0.2c3.4,0,6.5-0.5,9.4-1.5c2.8-1,5.3-2.5,7.3-4.6c2-2.1,3.6-4.8,4.8-8.2c1.1-3.3,1.7-7.4,1.7-12.1
		c0-9-2.1-15.8-6.3-20.3c-4.2-4.5-9.8-6.8-16.8-6.8c-1.4,0-2.8,0.1-4.3,0.1c-1.5,0.1-2.9,0.3-4.4,0.4V469.6z"/>
	<path class="fill" d="M210.7,414c5.4,0,10.3,0.6,14.8,1.6c4.4,1.1,8.3,2.8,11.4,5c3.2,2.3,5.6,5.1,7.3,8.6c1.7,3.4,2.5,7.5,2.5,12.2V475
		c0,2.6-0.7,4.7-2.2,6.4c-1.5,1.6-3.2,3.1-5.2,4.3c-6.5,3.9-15.7,5.9-27.5,5.9c-5.3,0-10.1-0.5-14.3-1.5c-4.3-1-7.9-2.5-11-4.5
		c-3.1-2-5.4-4.5-7-7.7c-1.6-3.1-2.5-6.7-2.5-10.8c0-6.9,2-12.2,6.1-15.9c4.1-3.7,10.4-6,19.1-6.9l19.6-2.1v-1c0-2.9-1.3-5-3.8-6.2
		c-2.5-1.2-6.2-1.9-11-1.9c-3.8,0-7.5,0.4-11.1,1.2c-3.6,0.8-6.9,1.8-9.8,3c-1.3-0.9-2.4-2.3-3.3-4.1c-0.9-1.8-1.3-3.8-1.3-5.8
		c0-2.6,0.6-4.7,1.9-6.2c1.2-1.5,3.2-2.9,5.8-4c2.9-1.1,6.3-1.9,10.3-2.4C203.4,414.3,207.2,414,210.7,414z M211.9,472.9
		c1.7,0,3.6-0.2,5.6-0.5c2-0.3,3.6-0.8,4.6-1.4v-12l-10.8,0.9c-2.8,0.2-5.1,0.8-6.9,1.8c-1.8,1-2.7,2.5-2.7,4.5c0,2,0.8,3.6,2.3,4.9
		C205.5,472.3,208.2,472.9,211.9,472.9z"/>
	<path class="fill" d="M271.9,470.5c-1.1-2.5-2.3-5.3-3.5-8.4c-1.3-3.1-2.5-6.6-3.9-10.6c-1.4-4-2.8-8.6-4.2-13.7c-1.5-5.1-3-11.1-4.6-17.8
		c1.4-1.4,3.3-2.6,5.6-3.7c2.3-1,4.9-1.6,7.7-1.6c3.5,0,6.4,0.7,8.7,2.2c2.3,1.5,4,4.2,5.1,8.2l11.8,41.3h0.6
		c1.2-3.4,2.4-7.1,3.5-11.1c1.1-4,2.3-8.1,3.4-12.4c1.1-4.2,2.1-8.5,3.1-12.8c0.9-4.2,1.8-8.4,2.5-12.5c3.6-1.9,7.5-2.9,11.9-2.9
		c3.5,0,6.4,0.8,8.7,2.3c2.3,1.5,3.5,4.1,3.5,7.8c0,2.7-0.4,5.8-1,9.4c-0.7,3.6-1.6,7.3-2.8,11.3c-1.2,4-2.5,8.1-4,12.4
		c-1.6,4.3-3.2,8.4-4.9,12.5c-1.7,4.1-3.5,8-5.3,11.6c-1.8,3.7-3.6,6.9-5.3,9.8c-2.8,4.9-5.4,8.9-7.8,12c-2.4,3.1-4.7,5.5-6.9,7.3
		c-2.2,1.7-4.4,2.9-6.6,3.6c-2.2,0.6-4.5,1-6.9,1c-4.2,0-7.6-1.3-10.2-3.8c-2.6-2.5-4.2-5.8-4.7-9.8c3.2-2.5,6.4-5.3,9.6-8.3
		c3.2-3.1,6.1-6.2,8.7-9.4c-1.7-0.5-3.5-1.7-5.5-3.5C276.3,479.1,274.2,475.6,271.9,470.5z"/>
</g>
</svg>
